<mxfile host="app.diagrams.net" agent="Mozilla/5.0 (Windows NT 10.0; Win64; x64) AppleWebKit/537.36 (KHTML, like Gecko) Chrome/130.0.0.0 YaBrowser/24.12.0.0 Safari/537.36" version="26.0.5">
  <diagram name="Страница — 1" id="l2WGk23o-8GWtkmTA5hV">
    <mxGraphModel dx="1434" dy="791" grid="1" gridSize="10" guides="1" tooltips="1" connect="1" arrows="1" fold="1" page="1" pageScale="1" pageWidth="827" pageHeight="1169" math="0" shadow="0">
      <root>
        <mxCell id="0" />
        <mxCell id="1" parent="0" />
        <mxCell id="CtR8RzfXE_EwzAKenF3g-11" value="" style="edgeStyle=orthogonalEdgeStyle;rounded=0;orthogonalLoop=1;jettySize=auto;html=1;" edge="1" parent="1" source="CtR8RzfXE_EwzAKenF3g-1" target="CtR8RzfXE_EwzAKenF3g-2">
          <mxGeometry relative="1" as="geometry" />
        </mxCell>
        <mxCell id="CtR8RzfXE_EwzAKenF3g-1" value="&lt;font style=&quot;font-size: 14px;&quot; face=&quot;Times New Roman&quot;&gt;Начало&lt;/font&gt;" style="ellipse;whiteSpace=wrap;html=1;" vertex="1" parent="1">
          <mxGeometry x="310" y="40" width="180" height="40" as="geometry" />
        </mxCell>
        <mxCell id="CtR8RzfXE_EwzAKenF3g-10" value="" style="edgeStyle=orthogonalEdgeStyle;rounded=0;orthogonalLoop=1;jettySize=auto;html=1;" edge="1" parent="1" source="CtR8RzfXE_EwzAKenF3g-2" target="CtR8RzfXE_EwzAKenF3g-3">
          <mxGeometry relative="1" as="geometry" />
        </mxCell>
        <mxCell id="CtR8RzfXE_EwzAKenF3g-2" value="&lt;font style=&quot;font-size: 14px;&quot; face=&quot;Times New Roman&quot;&gt;Ввод переменных m, b&lt;/font&gt;" style="shape=parallelogram;perimeter=parallelogramPerimeter;whiteSpace=wrap;html=1;fixedSize=1;" vertex="1" parent="1">
          <mxGeometry x="310" y="120" width="180" height="60" as="geometry" />
        </mxCell>
        <mxCell id="CtR8RzfXE_EwzAKenF3g-9" value="" style="edgeStyle=orthogonalEdgeStyle;rounded=0;orthogonalLoop=1;jettySize=auto;html=1;" edge="1" parent="1" source="CtR8RzfXE_EwzAKenF3g-3" target="CtR8RzfXE_EwzAKenF3g-4">
          <mxGeometry relative="1" as="geometry" />
        </mxCell>
        <mxCell id="CtR8RzfXE_EwzAKenF3g-3" value="&lt;font style=&quot;font-size: 14px;&quot; face=&quot;Times New Roman&quot;&gt;Расчёт u&lt;/font&gt;" style="rounded=0;whiteSpace=wrap;html=1;" vertex="1" parent="1">
          <mxGeometry x="310" y="220" width="180" height="40" as="geometry" />
        </mxCell>
        <mxCell id="CtR8RzfXE_EwzAKenF3g-7" value="" style="edgeStyle=orthogonalEdgeStyle;rounded=0;orthogonalLoop=1;jettySize=auto;html=1;" edge="1" parent="1" source="CtR8RzfXE_EwzAKenF3g-4" target="CtR8RzfXE_EwzAKenF3g-6">
          <mxGeometry relative="1" as="geometry" />
        </mxCell>
        <mxCell id="CtR8RzfXE_EwzAKenF3g-8" value="" style="edgeStyle=orthogonalEdgeStyle;rounded=0;orthogonalLoop=1;jettySize=auto;html=1;" edge="1" parent="1" source="CtR8RzfXE_EwzAKenF3g-4" target="CtR8RzfXE_EwzAKenF3g-5">
          <mxGeometry relative="1" as="geometry" />
        </mxCell>
        <mxCell id="CtR8RzfXE_EwzAKenF3g-4" value="&lt;font style=&quot;font-size: 14px;&quot; face=&quot;Times New Roman&quot;&gt;m &amp;gt; 5&lt;/font&gt;" style="rhombus;whiteSpace=wrap;html=1;" vertex="1" parent="1">
          <mxGeometry x="310" y="300" width="180" height="60" as="geometry" />
        </mxCell>
        <mxCell id="CtR8RzfXE_EwzAKenF3g-5" value="&lt;font face=&quot;Times New Roman&quot;&gt;&lt;span style=&quot;font-size: 14px;&quot;&gt;u = Math.Pow(b, 2) - m&lt;/span&gt;&lt;/font&gt;" style="rounded=0;whiteSpace=wrap;html=1;" vertex="1" parent="1">
          <mxGeometry x="530" y="300" width="180" height="60" as="geometry" />
        </mxCell>
        <mxCell id="CtR8RzfXE_EwzAKenF3g-16" value="" style="edgeStyle=orthogonalEdgeStyle;rounded=0;orthogonalLoop=1;jettySize=auto;html=1;" edge="1" parent="1" source="CtR8RzfXE_EwzAKenF3g-6" target="CtR8RzfXE_EwzAKenF3g-15">
          <mxGeometry relative="1" as="geometry" />
        </mxCell>
        <mxCell id="CtR8RzfXE_EwzAKenF3g-6" value="&lt;font style=&quot;font-size: 14px;&quot; face=&quot;Times New Roman&quot;&gt;u = Math.Pow(b, 2)&amp;nbsp;&lt;/font&gt;" style="rounded=0;whiteSpace=wrap;html=1;" vertex="1" parent="1">
          <mxGeometry x="310" y="400" width="180" height="60" as="geometry" />
        </mxCell>
        <mxCell id="CtR8RzfXE_EwzAKenF3g-13" value="" style="endArrow=none;html=1;rounded=0;" edge="1" parent="1">
          <mxGeometry width="50" height="50" relative="1" as="geometry">
            <mxPoint x="619.5" y="480" as="sourcePoint" />
            <mxPoint x="619.5" y="360" as="targetPoint" />
          </mxGeometry>
        </mxCell>
        <mxCell id="CtR8RzfXE_EwzAKenF3g-14" value="" style="endArrow=classic;html=1;rounded=0;" edge="1" parent="1">
          <mxGeometry width="50" height="50" relative="1" as="geometry">
            <mxPoint x="620" y="480" as="sourcePoint" />
            <mxPoint x="400" y="480" as="targetPoint" />
          </mxGeometry>
        </mxCell>
        <mxCell id="CtR8RzfXE_EwzAKenF3g-20" value="" style="edgeStyle=orthogonalEdgeStyle;rounded=0;orthogonalLoop=1;jettySize=auto;html=1;" edge="1" parent="1" source="CtR8RzfXE_EwzAKenF3g-15" target="CtR8RzfXE_EwzAKenF3g-18">
          <mxGeometry relative="1" as="geometry" />
        </mxCell>
        <mxCell id="CtR8RzfXE_EwzAKenF3g-15" value="&lt;font style=&quot;font-size: 14px;&quot; face=&quot;Times New Roman&quot;&gt;Расчёт a&lt;/font&gt;" style="rounded=0;whiteSpace=wrap;html=1;" vertex="1" parent="1">
          <mxGeometry x="310" y="500" width="180" height="60" as="geometry" />
        </mxCell>
        <mxCell id="CtR8RzfXE_EwzAKenF3g-24" value="" style="edgeStyle=orthogonalEdgeStyle;rounded=0;orthogonalLoop=1;jettySize=auto;html=1;" edge="1" parent="1" source="CtR8RzfXE_EwzAKenF3g-17" target="CtR8RzfXE_EwzAKenF3g-23">
          <mxGeometry relative="1" as="geometry" />
        </mxCell>
        <mxCell id="CtR8RzfXE_EwzAKenF3g-26" value="" style="edgeStyle=orthogonalEdgeStyle;rounded=0;orthogonalLoop=1;jettySize=auto;html=1;" edge="1" parent="1" source="CtR8RzfXE_EwzAKenF3g-17" target="CtR8RzfXE_EwzAKenF3g-25">
          <mxGeometry relative="1" as="geometry" />
        </mxCell>
        <mxCell id="CtR8RzfXE_EwzAKenF3g-17" value="&lt;font style=&quot;font-size: 14px;&quot; face=&quot;Times New Roman&quot;&gt;m &amp;gt; 10&amp;nbsp;&lt;/font&gt;" style="rhombus;whiteSpace=wrap;html=1;" vertex="1" parent="1">
          <mxGeometry x="310" y="700" width="180" height="60" as="geometry" />
        </mxCell>
        <mxCell id="CtR8RzfXE_EwzAKenF3g-21" value="" style="edgeStyle=orthogonalEdgeStyle;rounded=0;orthogonalLoop=1;jettySize=auto;html=1;" edge="1" parent="1" source="CtR8RzfXE_EwzAKenF3g-18" target="CtR8RzfXE_EwzAKenF3g-19">
          <mxGeometry relative="1" as="geometry" />
        </mxCell>
        <mxCell id="CtR8RzfXE_EwzAKenF3g-22" value="" style="edgeStyle=orthogonalEdgeStyle;rounded=0;orthogonalLoop=1;jettySize=auto;html=1;" edge="1" parent="1" source="CtR8RzfXE_EwzAKenF3g-18" target="CtR8RzfXE_EwzAKenF3g-17">
          <mxGeometry relative="1" as="geometry" />
        </mxCell>
        <mxCell id="CtR8RzfXE_EwzAKenF3g-18" value="&lt;font style=&quot;font-size: 14px;&quot; face=&quot;Times New Roman&quot;&gt;m = 10&amp;nbsp;&lt;/font&gt;" style="rhombus;whiteSpace=wrap;html=1;" vertex="1" parent="1">
          <mxGeometry x="310" y="600" width="180" height="60" as="geometry" />
        </mxCell>
        <mxCell id="CtR8RzfXE_EwzAKenF3g-19" value="&lt;font style=&quot;font-size: 14px;&quot; face=&quot;Times New Roman&quot;&gt;&amp;nbsp;a = Math.Pow(m, 2) - Math.Cos(m)&lt;/font&gt;" style="rounded=0;whiteSpace=wrap;html=1;" vertex="1" parent="1">
          <mxGeometry x="530" y="600" width="180" height="60" as="geometry" />
        </mxCell>
        <mxCell id="CtR8RzfXE_EwzAKenF3g-23" value="&lt;font style=&quot;font-size: 14px;&quot; face=&quot;Times New Roman&quot;&gt;&amp;nbsp;a = Math.Pow(m, 2) + 5&lt;/font&gt;" style="rounded=0;whiteSpace=wrap;html=1;" vertex="1" parent="1">
          <mxGeometry x="310" y="800" width="180" height="60" as="geometry" />
        </mxCell>
        <mxCell id="CtR8RzfXE_EwzAKenF3g-25" value="&lt;font style=&quot;font-size: 14px;&quot; face=&quot;Times New Roman&quot;&gt;a = Math.Cos(Math.Pow(m, 2))&lt;/font&gt;" style="rounded=0;whiteSpace=wrap;html=1;" vertex="1" parent="1">
          <mxGeometry x="530" y="700" width="180" height="60" as="geometry" />
        </mxCell>
        <mxCell id="CtR8RzfXE_EwzAKenF3g-28" value="" style="endArrow=none;html=1;rounded=0;" edge="1" parent="1">
          <mxGeometry width="50" height="50" relative="1" as="geometry">
            <mxPoint x="760" y="630" as="sourcePoint" />
            <mxPoint x="760" y="880" as="targetPoint" />
          </mxGeometry>
        </mxCell>
        <mxCell id="CtR8RzfXE_EwzAKenF3g-30" value="" style="endArrow=none;html=1;rounded=0;" edge="1" parent="1">
          <mxGeometry width="50" height="50" relative="1" as="geometry">
            <mxPoint x="619.5" y="760" as="sourcePoint" />
            <mxPoint x="619.5" y="880" as="targetPoint" />
          </mxGeometry>
        </mxCell>
        <mxCell id="CtR8RzfXE_EwzAKenF3g-32" value="" style="endArrow=classic;html=1;rounded=0;" edge="1" parent="1">
          <mxGeometry width="50" height="50" relative="1" as="geometry">
            <mxPoint x="400" y="860" as="sourcePoint" />
            <mxPoint x="400" y="920" as="targetPoint" />
          </mxGeometry>
        </mxCell>
        <mxCell id="CtR8RzfXE_EwzAKenF3g-33" value="1" style="ellipse;whiteSpace=wrap;html=1;aspect=fixed;" vertex="1" parent="1">
          <mxGeometry x="380" y="920" width="40" height="40" as="geometry" />
        </mxCell>
        <mxCell id="CtR8RzfXE_EwzAKenF3g-34" value="да" style="text;html=1;align=center;verticalAlign=middle;whiteSpace=wrap;rounded=0;" vertex="1" parent="1">
          <mxGeometry x="350" y="360" width="60" height="30" as="geometry" />
        </mxCell>
        <mxCell id="CtR8RzfXE_EwzAKenF3g-35" value="нет" style="text;html=1;align=center;verticalAlign=middle;whiteSpace=wrap;rounded=0;" vertex="1" parent="1">
          <mxGeometry x="470" y="300" width="60" height="30" as="geometry" />
        </mxCell>
        <mxCell id="CtR8RzfXE_EwzAKenF3g-36" value="да" style="text;html=1;align=center;verticalAlign=middle;whiteSpace=wrap;rounded=0;" vertex="1" parent="1">
          <mxGeometry x="470" y="600" width="60" height="30" as="geometry" />
        </mxCell>
        <mxCell id="CtR8RzfXE_EwzAKenF3g-37" value="нет" style="text;html=1;align=center;verticalAlign=middle;whiteSpace=wrap;rounded=0;" vertex="1" parent="1">
          <mxGeometry x="350" y="660" width="60" height="30" as="geometry" />
        </mxCell>
        <mxCell id="CtR8RzfXE_EwzAKenF3g-38" value="да" style="text;html=1;align=center;verticalAlign=middle;whiteSpace=wrap;rounded=0;" vertex="1" parent="1">
          <mxGeometry x="350" y="760" width="60" height="30" as="geometry" />
        </mxCell>
        <mxCell id="CtR8RzfXE_EwzAKenF3g-39" value="нет" style="text;html=1;align=center;verticalAlign=middle;whiteSpace=wrap;rounded=0;" vertex="1" parent="1">
          <mxGeometry x="470" y="700" width="60" height="30" as="geometry" />
        </mxCell>
        <mxCell id="CtR8RzfXE_EwzAKenF3g-40" value="1" style="ellipse;whiteSpace=wrap;html=1;aspect=fixed;" vertex="1" parent="1">
          <mxGeometry x="380" y="1040" width="40" height="40" as="geometry" />
        </mxCell>
        <mxCell id="CtR8RzfXE_EwzAKenF3g-50" value="" style="edgeStyle=orthogonalEdgeStyle;rounded=0;orthogonalLoop=1;jettySize=auto;html=1;" edge="1" parent="1" source="CtR8RzfXE_EwzAKenF3g-42" target="CtR8RzfXE_EwzAKenF3g-45">
          <mxGeometry relative="1" as="geometry" />
        </mxCell>
        <mxCell id="CtR8RzfXE_EwzAKenF3g-42" value="&lt;font style=&quot;font-size: 14px;&quot; face=&quot;Times New Roman&quot;&gt;numerator = a * Math.Tan(a) - Math.Pow(m, 2)&lt;/font&gt;&lt;div&gt;&lt;font style=&quot;font-size: 14px;&quot; face=&quot;Times New Roman&quot;&gt;denominator = Math.Cos(u) + u * b&lt;/font&gt;&lt;/div&gt;&lt;div&gt;&lt;font style=&quot;font-size: 14px;&quot; face=&quot;Times New Roman&quot;&gt;Z = numerator / denominator&lt;br&gt;&lt;/font&gt;&lt;div&gt;&lt;br&gt;&lt;/div&gt;&lt;/div&gt;" style="rounded=0;whiteSpace=wrap;html=1;" vertex="1" parent="1">
          <mxGeometry x="310" y="1120" width="180" height="100" as="geometry" />
        </mxCell>
        <mxCell id="CtR8RzfXE_EwzAKenF3g-44" value="" style="endArrow=classic;html=1;rounded=0;entryX=0.5;entryY=0;entryDx=0;entryDy=0;" edge="1" parent="1" target="CtR8RzfXE_EwzAKenF3g-42">
          <mxGeometry width="50" height="50" relative="1" as="geometry">
            <mxPoint x="400" y="1080" as="sourcePoint" />
            <mxPoint x="450" y="1030" as="targetPoint" />
          </mxGeometry>
        </mxCell>
        <mxCell id="CtR8RzfXE_EwzAKenF3g-45" value="&lt;font style=&quot;font-size: 14px;&quot; face=&quot;Times New Roman&quot;&gt;Console.WriteLine($&quot;Результат вычисления Z: {Z}&quot;)&lt;/font&gt;" style="shape=document;whiteSpace=wrap;html=1;boundedLbl=1;" vertex="1" parent="1">
          <mxGeometry x="310" y="1260" width="180" height="80" as="geometry" />
        </mxCell>
        <mxCell id="CtR8RzfXE_EwzAKenF3g-47" value="" style="endArrow=none;html=1;rounded=0;" edge="1" parent="1">
          <mxGeometry width="50" height="50" relative="1" as="geometry">
            <mxPoint x="710" y="630" as="sourcePoint" />
            <mxPoint x="760" y="630" as="targetPoint" />
          </mxGeometry>
        </mxCell>
        <mxCell id="CtR8RzfXE_EwzAKenF3g-51" value="" style="endArrow=classic;html=1;rounded=0;" edge="1" parent="1">
          <mxGeometry width="50" height="50" relative="1" as="geometry">
            <mxPoint x="760" y="880" as="sourcePoint" />
            <mxPoint x="620" y="880" as="targetPoint" />
          </mxGeometry>
        </mxCell>
        <mxCell id="CtR8RzfXE_EwzAKenF3g-52" value="" style="endArrow=classic;html=1;rounded=0;" edge="1" parent="1">
          <mxGeometry width="50" height="50" relative="1" as="geometry">
            <mxPoint x="620" y="880" as="sourcePoint" />
            <mxPoint x="400" y="880" as="targetPoint" />
          </mxGeometry>
        </mxCell>
        <mxCell id="CtR8RzfXE_EwzAKenF3g-53" value="&lt;font style=&quot;font-size: 14px;&quot; face=&quot;Times New Roman&quot;&gt;Конец&lt;/font&gt;" style="ellipse;whiteSpace=wrap;html=1;" vertex="1" parent="1">
          <mxGeometry x="310" y="1380" width="180" height="40" as="geometry" />
        </mxCell>
        <mxCell id="CtR8RzfXE_EwzAKenF3g-55" value="" style="endArrow=classic;html=1;rounded=0;entryX=0.5;entryY=0;entryDx=0;entryDy=0;" edge="1" parent="1" target="CtR8RzfXE_EwzAKenF3g-53">
          <mxGeometry width="50" height="50" relative="1" as="geometry">
            <mxPoint x="400" y="1330" as="sourcePoint" />
            <mxPoint x="450" y="1280" as="targetPoint" />
          </mxGeometry>
        </mxCell>
      </root>
    </mxGraphModel>
  </diagram>
</mxfile>
